<svg width="17" height="17" viewBox="0 0 17 17" fill="none" xmlns="http://www.w3.org/2000/svg">
<path d="M14.9639 0H1.79566C0.803933 0 0 0.803936 0 1.79567V14.9639C0 15.9556 0.803933 16.7595 1.79566 16.7595H14.9639C15.9556 16.7595 16.7595 15.9556 16.7595 14.9639V1.79567C16.7595 0.803936 15.9556 0 14.9639 0ZM14.9639 14.9639H1.79566V1.79567H14.9639V14.9639ZM13.6222 5.92105L7.16571 12.3257C6.98969 12.5003 6.70545 12.4992 6.53086 12.3232L3.13478 8.8996C2.96019 8.72359 2.96131 8.43935 3.13736 8.26473L3.98727 7.42166C4.16328 7.24707 4.44752 7.2482 4.62211 7.42424L6.85891 9.67918L12.1468 4.43375C12.3228 4.25916 12.6071 4.26029 12.7817 4.4363L13.6247 5.28617C13.7993 5.46222 13.7982 5.74646 13.6222 5.92105Z" fill="#F8F6BF"/>
</svg>
