<svg width="13" height="17" viewBox="0 0 13 17" fill="none" xmlns="http://www.w3.org/2000/svg">
<path d="M5.93191 16.463C1.25116 9.67729 0.382324 8.98087 0.382324 6.48702C0.382324 3.07098 3.15154 0.301758 6.56757 0.301758C9.9836 0.301758 12.7528 3.07098 12.7528 6.48702C12.7528 8.98087 11.884 9.67729 7.20324 16.463C6.89607 16.9067 6.23905 16.9067 5.93191 16.463ZM6.56757 9.06421C7.99092 9.06421 9.14476 7.91037 9.14476 6.48702C9.14476 5.06367 7.99092 3.90983 6.56757 3.90983C5.14423 3.90983 3.99039 5.06367 3.99039 6.48702C3.99039 7.91037 5.14423 9.06421 6.56757 9.06421Z" fill="white"/>
</svg>
