<svg width="18" height="13" viewBox="0 0 18 13" fill="none" xmlns="http://www.w3.org/2000/svg">
<path d="M17.0903 4.36178C17.22 4.25867 17.4129 4.35512 17.4129 4.51811V11.3204C17.4129 12.2018 16.6978 12.917 15.8163 12.917H1.97894C1.09748 12.917 0.382324 12.2018 0.382324 11.3204V4.52144C0.382324 4.35512 0.571922 4.26199 0.704974 4.3651C1.45006 4.94388 2.43797 5.67899 5.83078 8.14376C6.53263 8.65601 7.71678 9.73373 8.89761 9.72708C10.0851 9.73705 11.2925 8.63605 11.9678 8.14376C15.3606 5.67899 16.3452 4.94055 17.0903 4.36178ZM8.89761 8.65934C9.66931 8.67265 10.7803 7.68806 11.3391 7.28226C15.7531 4.07904 16.089 3.79964 17.1069 3.00133C17.2998 2.85164 17.4129 2.6188 17.4129 2.37266V1.74066C17.4129 0.8592 16.6978 0.144043 15.8163 0.144043H1.97894C1.09748 0.144043 0.382324 0.8592 0.382324 1.74066V2.37266C0.382324 2.6188 0.495418 2.84832 0.688342 3.00133C1.70619 3.79631 2.04214 4.07904 6.45612 7.28226C7.01494 7.68806 8.12591 8.67265 8.89761 8.65934Z" fill="white"/>
</svg>
