<svg width="22" height="19" viewBox="0 0 22 19" fill="none" xmlns="http://www.w3.org/2000/svg">
<path d="M0.329084 8.33529C1.54757 3.43779 5.94548 0 10.9923 0C16.0391 0 20.437 3.43779 21.6555 8.33529H20.6923C19.0675 8.31136 17.476 8.79695 16.1413 9.72387C16.0642 9.77964 15.9838 9.83057 15.9005 9.87637L15.7881 9.87638C15.7047 9.83057 15.6243 9.77964 15.5473 9.72387C12.793 7.87177 9.19152 7.87177 6.43724 9.72387C6.36021 9.77964 6.27979 9.83057 6.19645 9.87637L6.08408 9.87638C6.00073 9.83057 5.92031 9.77964 5.84328 9.72387C4.50858 8.79695 2.91708 8.31136 1.29226 8.33529H0.329084ZM18.9586 13.3679C19.453 12.9828 20.0658 12.7814 20.6923 12.798H21.9845V10.2215H20.6923C19.5888 10.2082 18.5106 10.5516 17.6181 11.2007C16.5873 11.9608 15.1816 11.9608 14.1507 11.2007C12.2765 9.8961 9.78828 9.8961 7.91412 11.2007C6.88324 11.9608 5.47755 11.9608 4.44667 11.2007C3.54321 10.5433 2.44952 10.1994 1.3324 10.2215H0V12.798H1.29226C1.91874 12.7814 2.53154 12.9828 3.02598 13.3679C4.89691 14.6735 7.38361 14.6735 9.25454 13.3679C9.74961 12.984 10.362 12.7827 10.9883 12.798C11.6149 12.7801 12.2282 12.9816 12.722 13.3679C14.5961 14.6725 17.0844 14.6726 18.9586 13.3679ZM18.9586 17.9751C19.453 17.59 20.0658 17.3886 20.6923 17.4052H21.9845V14.8287H20.6923C19.5888 14.8154 18.5106 15.1588 17.6181 15.808C16.5873 16.568 15.1816 16.568 14.1507 15.808C12.2765 14.5033 9.78828 14.5033 7.91412 15.808C6.88324 16.568 5.47755 16.568 4.44667 15.808C3.54321 15.1505 2.44952 14.8066 1.3324 14.8287H0V17.4052H1.29226C1.91874 17.3886 2.53154 17.59 3.02598 17.9751C4.89691 19.2807 7.38361 19.2807 9.25454 17.9751C9.74961 17.5912 10.362 17.3899 10.9883 17.4052C11.6149 17.3873 12.2282 17.5888 12.722 17.9751C14.5961 19.2798 17.0844 19.2798 18.9586 17.9751Z" fill="white"/>
</svg>
