<svg width="24" height="24" viewBox="0 0 24 24" fill="none" xmlns="http://www.w3.org/2000/svg">
<path d="M23.7905 7.93092C23.7905 4.66086 21.7837 1.72637 18.7367 0.540404C15.6901 -0.645566 12.2276 0.159983 10.0171 2.56922H0V23.711H21.1498V13.8304C22.8287 12.3287 23.789 10.1834 23.7905 7.93092ZM19.7211 7.93092C19.7255 10.0686 17.9954 11.8048 15.8577 11.8077C13.72 11.8107 11.985 10.0793 11.9835 7.94163C11.9821 5.80392 13.7146 4.07018 15.8523 4.07017C17.9858 4.07017 19.7166 5.79739 19.7211 7.93092ZM17.0804 19.6416H4.06943V6.63865H8.03451C7.95791 7.06523 7.91764 7.49753 7.91411 7.93092C7.91854 12.3132 11.47 15.8647 15.8523 15.8691C16.2638 15.8669 16.6744 15.8321 17.0804 15.7648L17.0804 19.6416Z" fill="white"/>
</svg>
