<svg width="17" height="18" viewBox="0 0 17 18" fill="none" xmlns="http://www.w3.org/2000/svg">
<path d="M16.2777 1.64928L12.9274 0.876123C12.5633 0.792364 12.1896 0.982432 12.0415 1.32391L10.4951 4.93198C10.3598 5.24768 10.45 5.61815 10.7174 5.83399L12.6696 7.43185C11.5099 9.90273 9.48359 11.958 6.96117 13.1403L5.36332 11.1881C5.14426 10.9207 4.77701 10.8305 4.4613 10.9658L0.853241 12.5121C0.508542 12.6636 0.318474 13.0372 0.402233 13.4013L1.17539 16.7516C1.25593 17.0995 1.56519 17.3508 1.92922 17.3508C10.1794 17.3508 16.8769 10.6662 16.8769 2.40311C16.8769 2.0423 16.6288 1.72982 16.2777 1.64928Z" fill="white"/>
</svg>
